<svg width="24" height="24" viewBox="0 0 24 24" fill="none" xmlns="http://www.w3.org/2000/svg">
<path d="M22.5 8.24993V14.2499C22.5 14.4488 22.421 14.6396 22.2803 14.7803C22.1397 14.9209 21.9489 14.9999 21.75 14.9999H15.75C15.5511 14.9999 15.3603 14.9209 15.2197 14.7803C15.079 14.6396 15 14.4488 15 14.2499C15 14.051 15.079 13.8602 15.2197 13.7196C15.3603 13.5789 15.5511 13.4999 15.75 13.4999H19.9313L17.835 11.4177C16.6814 10.2636 15.2114 9.47746 13.6109 9.15881C12.0105 8.84017 10.3515 9.00331 8.84379 9.62761C7.33608 10.2519 6.04737 11.3093 5.14068 12.6661C4.23398 14.0229 3.75001 15.6181 3.75 17.2499C3.75 17.4488 3.67098 17.6396 3.53033 17.7803C3.38968 17.9209 3.19891 17.9999 3 17.9999C2.80109 17.9999 2.61032 17.9209 2.46967 17.7803C2.32902 17.6396 2.25 17.4488 2.25 17.2499C2.24997 15.3215 2.82178 13.4364 3.89312 11.833C4.96446 10.2296 6.48721 8.97991 8.26881 8.24194C10.0504 7.50398 12.0108 7.31089 13.9022 7.68711C15.7935 8.06333 17.5308 8.99196 18.8944 10.3556L21 12.4471V8.24993C21 8.05102 21.079 7.86025 21.2197 7.7196C21.3603 7.57895 21.5511 7.49993 21.75 7.49993C21.9489 7.49993 22.1397 7.57895 22.2803 7.7196C22.421 7.86025 22.5 8.05102 22.5 8.24993Z" fill="#566FE9"/>
</svg>
