<svg width="56" height="56" viewBox="0 0 56 56" fill="none" xmlns="http://www.w3.org/2000/svg">
<rect width="56" height="56" rx="28" fill="#566FE9" fill-opacity="0.1"/>
<path d="M34.75 19H31C30.6022 19 30.2206 19.158 29.9393 19.4393C29.658 19.7206 29.5 20.1022 29.5 20.5V35.5C29.5 35.8978 29.658 36.2794 29.9393 36.5607C30.2206 36.842 30.6022 37 31 37H34.75C35.1478 37 35.5294 36.842 35.8107 36.5607C36.092 36.2794 36.25 35.8978 36.25 35.5V20.5C36.25 20.1022 36.092 19.7206 35.8107 19.4393C35.5294 19.158 35.1478 19 34.75 19ZM34.75 35.5H31V20.5H34.75V35.5ZM25 19H21.25C20.8522 19 20.4706 19.158 20.1893 19.4393C19.908 19.7206 19.75 20.1022 19.75 20.5V35.5C19.75 35.8978 19.908 36.2794 20.1893 36.5607C20.4706 36.842 20.8522 37 21.25 37H25C25.3978 37 25.7794 36.842 26.0607 36.5607C26.342 36.2794 26.5 35.8978 26.5 35.5V20.5C26.5 20.1022 26.342 19.7206 26.0607 19.4393C25.7794 19.158 25.3978 19 25 19ZM25 35.5H21.25V20.5H25V35.5Z" fill="#566FE9"/>
</svg>
