<svg width="22" height="24" viewBox="0 0 22 24" fill="none" xmlns="http://www.w3.org/2000/svg">
<g clip-path="url(#clip0_3004_4220)">
<path d="M10.8547 5.80664C12.1983 5.80664 13.377 5.28904 14.3907 4.25384C15.4044 3.21863 15.9113 2.01486 15.9113 0.642543C15.9113 0.491823 15.8992 0.277642 15.8751 0C15.6981 0.0237979 15.5654 0.0436295 15.4769 0.0594947C14.2378 0.234013 13.1477 0.832926 12.2063 1.85621C11.265 2.87952 10.7943 3.97422 10.7943 5.14032C10.7943 5.27515 10.8144 5.49729 10.8547 5.80664ZM15.6699 24C16.6274 24 17.6854 23.3535 18.8439 22.0605C20.0025 20.7675 20.8875 19.2484 21.499 17.5032C19.2221 16.3451 18.0836 14.6832 18.0836 12.5176C18.0836 10.709 19.0048 9.16214 20.8473 7.87705C19.568 6.29846 17.8785 5.50916 15.7786 5.50916C14.8935 5.50916 14.085 5.64005 13.3528 5.90183L12.8942 6.06841L12.2787 6.30639C11.8765 6.45711 11.5104 6.5325 11.1805 6.5325C10.923 6.5325 10.5851 6.44521 10.1668 6.27069L9.69609 6.08031L9.24958 5.90183C8.59787 5.63212 7.89791 5.49726 7.14968 5.49726C5.14633 5.49726 3.53722 6.1636 2.32233 7.49629C1.10743 8.82894 0.5 10.586 0.5 12.7675C0.5 15.8374 1.47351 18.6733 3.42055 21.2752C4.77222 23.0917 6.00721 24 7.12554 24C7.60024 24 8.0709 23.9088 8.53754 23.7263L9.12889 23.4883L9.59957 23.3218C10.2593 23.0917 10.8667 22.9767 11.4219 22.9767C12.0092 22.9767 12.685 23.1235 13.4494 23.417L13.8235 23.5597C14.6039 23.8532 15.2194 24 15.6699 24Z" fill="#566FE9"/>
</g>
<defs>
<clipPath id="clip0_3004_4220">
<rect width="21" height="24" fill="white" transform="translate(0.5)"/>
</clipPath>
</defs>
</svg>
