<svg width="56" height="56" viewBox="0 0 56 56" fill="none" xmlns="http://www.w3.org/2000/svg">
<rect width="56" height="56" rx="28" fill="#566FE9" fill-opacity="0.1"/>
<path d="M37.1744 25.6394C36.8209 25.27 36.4553 24.8894 36.3175 24.5547C36.19 24.2481 36.1825 23.74 36.175 23.2478C36.1609 22.3328 36.1459 21.2959 35.425 20.575C34.7041 19.8541 33.6672 19.8391 32.7522 19.825C32.26 19.8175 31.7519 19.81 31.4453 19.6825C31.1116 19.5447 30.73 19.1791 30.3606 18.8256C29.7137 18.2041 28.9788 17.5 28 17.5C27.0212 17.5 26.2872 18.2041 25.6394 18.8256C25.27 19.1791 24.8894 19.5447 24.5547 19.6825C24.25 19.81 23.74 19.8175 23.2478 19.825C22.3328 19.8391 21.2959 19.8541 20.575 20.575C19.8541 21.2959 19.8438 22.3328 19.825 23.2478C19.8175 23.74 19.81 24.2481 19.6825 24.5547C19.5447 24.8884 19.1791 25.27 18.8256 25.6394C18.2041 26.2863 17.5 27.0212 17.5 28C17.5 28.9788 18.2041 29.7128 18.8256 30.3606C19.1791 30.73 19.5447 31.1106 19.6825 31.4453C19.81 31.7519 19.8175 32.26 19.825 32.7522C19.8391 33.6672 19.8541 34.7041 20.575 35.425C21.2959 36.1459 22.3328 36.1609 23.2478 36.175C23.74 36.1825 24.2481 36.19 24.5547 36.3175C24.8884 36.4553 25.27 36.8209 25.6394 37.1744C26.2863 37.7959 27.0212 38.5 28 38.5C28.9788 38.5 29.7128 37.7959 30.3606 37.1744C30.73 36.8209 31.1106 36.4553 31.4453 36.3175C31.7519 36.19 32.26 36.1825 32.7522 36.175C33.6672 36.1609 34.7041 36.1459 35.425 35.425C36.1459 34.7041 36.1609 33.6672 36.175 32.7522C36.1825 32.26 36.19 31.7519 36.3175 31.4453C36.4553 31.1116 36.8209 30.73 37.1744 30.3606C37.7959 29.7137 38.5 28.9788 38.5 28C38.5 27.0212 37.7959 26.2872 37.1744 25.6394ZM36.0916 29.3228C35.6425 29.7916 35.1775 30.2763 34.9309 30.8716C34.6947 31.4434 34.6844 32.0969 34.675 32.7297C34.6656 33.3859 34.6553 34.0731 34.3638 34.3638C34.0722 34.6544 33.3897 34.6656 32.7297 34.675C32.0969 34.6844 31.4434 34.6947 30.8716 34.9309C30.2763 35.1775 29.7916 35.6425 29.3228 36.0916C28.8541 36.5406 28.375 37 28 37C27.625 37 27.1422 36.5387 26.6772 36.0916C26.2122 35.6444 25.7238 35.1775 25.1284 34.9309C24.5566 34.6947 23.9031 34.6844 23.2703 34.675C22.6141 34.6656 21.9269 34.6553 21.6363 34.3638C21.3456 34.0722 21.3344 33.3897 21.325 32.7297C21.3156 32.0969 21.3053 31.4434 21.0691 30.8716C20.8225 30.2763 20.3575 29.7916 19.9084 29.3228C19.4594 28.8541 19 28.375 19 28C19 27.625 19.4612 27.1422 19.9084 26.6772C20.3556 26.2122 20.8225 25.7238 21.0691 25.1284C21.3053 24.5566 21.3156 23.9031 21.325 23.2703C21.3344 22.6141 21.3447 21.9269 21.6363 21.6363C21.9278 21.3456 22.6103 21.3344 23.2703 21.325C23.9031 21.3156 24.5566 21.3053 25.1284 21.0691C25.7238 20.8225 26.2084 20.3575 26.6772 19.9084C27.1459 19.4594 27.625 19 28 19C28.375 19 28.8578 19.4612 29.3228 19.9084C29.7878 20.3556 30.2763 20.8225 30.8716 21.0691C31.4434 21.3053 32.0969 21.3156 32.7297 21.325C33.3859 21.3344 34.0731 21.3447 34.3638 21.6363C34.6544 21.9278 34.6656 22.6103 34.675 23.2703C34.6844 23.9031 34.6947 24.5566 34.9309 25.1284C35.1775 25.7238 35.6425 26.2084 36.0916 26.6772C36.5406 27.1459 37 27.625 37 28C37 28.375 36.5387 28.8578 36.0916 29.3228ZM29.125 32.875C29.125 33.0975 29.059 33.315 28.9354 33.5C28.8118 33.685 28.6361 33.8292 28.4305 33.9144C28.225 33.9995 27.9988 34.0218 27.7805 33.9784C27.5623 33.935 27.3618 33.8278 27.2045 33.6705C27.0472 33.5132 26.94 33.3127 26.8966 33.0945C26.8532 32.8762 26.8755 32.65 26.9606 32.4445C27.0458 32.2389 27.19 32.0632 27.375 31.9396C27.56 31.816 27.7775 31.75 28 31.75C28.2984 31.75 28.5845 31.8685 28.7955 32.0795C29.0065 32.2905 29.125 32.5766 29.125 32.875ZM31.75 26.125C31.75 27.7544 30.46 29.1184 28.75 29.4325V29.5C28.75 29.6989 28.671 29.8897 28.5303 30.0303C28.3897 30.171 28.1989 30.25 28 30.25C27.8011 30.25 27.6103 30.171 27.4697 30.0303C27.329 29.8897 27.25 29.6989 27.25 29.5V28.75C27.25 28.5511 27.329 28.3603 27.4697 28.2197C27.6103 28.079 27.8011 28 28 28C29.2403 28 30.25 27.1562 30.25 26.125C30.25 25.0938 29.2403 24.25 28 24.25C26.7597 24.25 25.75 25.0938 25.75 26.125V26.5C25.75 26.6989 25.671 26.8897 25.5303 27.0303C25.3897 27.171 25.1989 27.25 25 27.25C24.8011 27.25 24.6103 27.171 24.4697 27.0303C24.329 26.8897 24.25 26.6989 24.25 26.5V26.125C24.25 24.2641 25.9319 22.75 28 22.75C30.0681 22.75 31.75 24.2641 31.75 26.125Z" fill="#566FE9"/>
</svg>
