<svg width="24" height="24" viewBox="0 0 24 24" fill="none" xmlns="http://www.w3.org/2000/svg">
<g clip-path="url(#clip0_3004_4224)">
<path d="M24 12.0012C24 5.37383 18.6274 0.00124931 12 0.00124931C5.37258 0.00124931 0 5.37383 0 12.0012C0 17.9908 4.38823 22.9552 10.125 23.8555V15.47H7.07813V12.0012H10.125V9.3575C10.125 6.35 11.9165 4.68875 14.6576 4.68875C15.9705 4.68875 17.3438 4.92312 17.3438 4.92312V7.87625H15.8306C14.3399 7.87625 13.875 8.80126 13.875 9.75024V12.0012H17.2031L16.6711 15.47H13.875V23.8555C19.6118 22.9552 24 17.9908 24 12.0012Z" fill="#566FE9"/>
<path d="M16.6711 15.4688L17.2031 12H13.875V9.74899C13.875 8.80001 14.3399 7.875 15.8306 7.875H17.3438V4.92188C17.3438 4.92188 15.9705 4.6875 14.6576 4.6875C11.9165 4.6875 10.125 6.34875 10.125 9.35625V12H7.07812V15.4688H10.125V23.8542C10.7359 23.9501 11.3621 24 12 24C12.6379 24 13.2641 23.9501 13.875 23.8542V15.4688H16.6711Z" fill="white"/>
</g>
<defs>
<clipPath id="clip0_3004_4224">
<rect width="24" height="24" fill="white"/>
</clipPath>
</defs>
</svg>
