<svg width="24" height="24" viewBox="0 0 24 24" fill="none" xmlns="http://www.w3.org/2000/svg">
<path d="M12 2.25C10.0716 2.25 8.18657 2.82183 6.58319 3.89317C4.97982 4.96451 3.73013 6.48726 2.99218 8.26884C2.25422 10.0504 2.06114 12.0108 2.43735 13.9021C2.81355 15.7934 3.74215 17.5307 5.10571 18.8943C6.46928 20.2579 8.20656 21.1865 10.0979 21.5627C11.9892 21.9389 13.9496 21.7458 15.7312 21.0078C17.5127 20.2699 19.0355 19.0202 20.1068 17.4168C21.1782 15.8134 21.75 13.9284 21.75 12C21.7473 9.41498 20.7192 6.93661 18.8913 5.10872C17.0634 3.28084 14.585 2.25273 12 2.25ZM12 20.25C10.3683 20.25 8.77326 19.7661 7.41655 18.8596C6.05984 17.9531 5.00242 16.6646 4.378 15.1571C3.75358 13.6496 3.5902 11.9908 3.90853 10.3905C4.22685 8.79016 5.01259 7.32015 6.16637 6.16637C7.32016 5.01259 8.79017 4.22685 10.3905 3.90852C11.9909 3.59019 13.6497 3.75357 15.1571 4.37799C16.6646 5.00242 17.9531 6.05984 18.8596 7.41655C19.7661 8.77325 20.25 10.3683 20.25 12C20.2475 14.1873 19.3775 16.2843 17.8309 17.8309C16.2843 19.3775 14.1873 20.2475 12 20.25ZM12 5.25C10.665 5.25 9.35994 5.64588 8.2499 6.38758C7.13987 7.12928 6.27471 8.18349 5.76382 9.41689C5.25293 10.6503 5.11925 12.0075 5.3797 13.3169C5.64015 14.6262 6.28303 15.829 7.22703 16.773C8.17104 17.717 9.37377 18.3599 10.6831 18.6203C11.9925 18.8808 13.3497 18.7471 14.5831 18.2362C15.8165 17.7253 16.8707 16.8601 17.6124 15.7501C18.3541 14.6401 18.75 13.335 18.75 12C18.748 10.2104 18.0362 8.49466 16.7708 7.22922C15.5053 5.96378 13.7896 5.25199 12 5.25ZM12 17.25C10.9617 17.25 9.94662 16.9421 9.08326 16.3652C8.2199 15.7883 7.547 14.9684 7.14964 14.0091C6.75228 13.0498 6.64831 11.9942 6.85088 10.9758C7.05345 9.95738 7.55347 9.02192 8.28769 8.28769C9.02192 7.55346 9.95738 7.05345 10.9758 6.85088C11.9942 6.6483 13.0498 6.75227 14.0091 7.14963C14.9684 7.54699 15.7883 8.2199 16.3652 9.08326C16.9421 9.94661 17.25 10.9616 17.25 12C17.2485 13.3919 16.6949 14.7264 15.7107 15.7107C14.7264 16.6949 13.3919 17.2485 12 17.25Z" fill="white"/>
</svg>
