<svg width="16" height="16" viewBox="0 0 16 16" fill="none" xmlns="http://www.w3.org/2000/svg">
<path d="M14.2075 1.79251C14.0818 1.66685 13.9248 1.57697 13.7528 1.53215C13.5807 1.48733 13.3998 1.48918 13.2288 1.53751H13.2194L1.22313 5.17751C1.02838 5.23364 0.855281 5.34762 0.726772 5.50435C0.598262 5.66108 0.520411 5.85316 0.503534 6.05514C0.486658 6.25711 0.531553 6.45945 0.63227 6.63533C0.732988 6.81122 0.884772 6.95234 1.06751 7.04001L6.37501 9.62501L8.95626 14.9294C9.03654 15.1007 9.16419 15.2455 9.32411 15.3466C9.48403 15.4477 9.66955 15.501 9.85876 15.5C9.88751 15.5 9.91626 15.4988 9.94501 15.4963C10.1468 15.4799 10.3388 15.4022 10.4952 15.2737C10.6516 15.1451 10.765 14.9717 10.82 14.7769L14.4575 2.78064C14.4575 2.77751 14.4575 2.77439 14.4575 2.77126C14.5065 2.60062 14.5091 2.42001 14.4652 2.248C14.4212 2.07599 14.3323 1.91878 14.2075 1.79251ZM9.86438 14.4906L9.86126 14.4994V14.495L7.35751 9.35126L10.3575 6.35126C10.4473 6.25673 10.4966 6.13086 10.495 6.00048C10.4933 5.8701 10.4408 5.74552 10.3486 5.65332C10.2564 5.56112 10.1318 5.50859 10.0014 5.50692C9.87104 5.50525 9.74517 5.55458 9.65063 5.64439L6.65064 8.64439L1.50501 6.14064H1.50063H1.50938L13.5 2.50001L9.86438 14.4906Z" fill="white"/>
</svg>
