<svg width="20" height="20" viewBox="0 0 20 20" fill="none" xmlns="http://www.w3.org/2000/svg">
<path d="M10 0C8.02219 0 6.08879 0.58649 4.4443 1.6853C2.79981 2.78412 1.51809 4.3459 0.761209 6.17317C0.00433285 8.00043 -0.193701 10.0111 0.192152 11.9509C0.578004 13.8907 1.53041 15.6725 2.92894 17.0711C4.32746 18.4696 6.10929 19.422 8.0491 19.8079C9.98891 20.1937 11.9996 19.9957 13.8268 19.2388C15.6541 18.4819 17.2159 17.2002 18.3147 15.5557C19.4135 13.9112 20 11.9778 20 10C19.9972 7.34869 18.9427 4.80678 17.068 2.93202C15.1932 1.05727 12.6513 0.00279983 10 0ZM10 18.4615C8.32647 18.4615 6.69052 17.9653 5.29903 17.0355C3.90753 16.1057 2.823 14.7842 2.18256 13.2381C1.54213 11.6919 1.37456 9.99061 1.70105 8.34924C2.02754 6.70786 2.83343 5.20016 4.01679 4.01679C5.20016 2.83342 6.70786 2.02754 8.34924 1.70105C9.99062 1.37456 11.692 1.54212 13.2381 2.18256C14.7842 2.82299 16.1058 3.90753 17.0355 5.29902C17.9653 6.69051 18.4615 8.32647 18.4615 10C18.459 12.2434 17.5667 14.3941 15.9804 15.9804C14.3941 17.5667 12.2434 18.459 10 18.4615ZM10 3.07692C8.63075 3.07692 7.29224 3.48295 6.15375 4.24367C5.01525 5.00439 4.12791 6.08563 3.60392 7.35065C3.07992 8.61568 2.94282 10.0077 3.20995 11.3506C3.47708 12.6936 4.13644 13.9271 5.10465 14.8954C6.07286 15.8636 7.30643 16.5229 8.64938 16.7901C9.99232 17.0572 11.3843 16.9201 12.6494 16.3961C13.9144 15.8721 14.9956 14.9847 15.7563 13.8463C16.5171 12.7078 16.9231 11.3693 16.9231 10C16.921 8.16451 16.191 6.40478 14.8931 5.10689C13.5952 3.80901 11.8355 3.07896 10 3.07692ZM10 15.3846C8.93503 15.3846 7.89397 15.0688 7.00847 14.4771C6.12298 13.8855 5.43282 13.0445 5.02527 12.0606C4.61772 11.0767 4.51109 9.99403 4.71885 8.94951C4.92662 7.905 5.43945 6.94555 6.19251 6.1925C6.94556 5.43945 7.905 4.92662 8.94952 4.71885C9.99403 4.51108 11.0767 4.61772 12.0606 5.02526C13.0445 5.43281 13.8855 6.12297 14.4771 7.00847C15.0688 7.89396 15.3846 8.93502 15.3846 10C15.3831 11.4276 14.8153 12.7963 13.8058 13.8058C12.7963 14.8153 11.4276 15.3831 10 15.3846Z" fill="white"/>
</svg>
