<svg width="23" height="14" viewBox="0 0 23 14" fill="none" xmlns="http://www.w3.org/2000/svg">
<path d="M22.5946 1.62917C22.4724 1.56364 22.3346 1.5325 22.1961 1.53909C22.0575 1.54567 21.9233 1.58972 21.8078 1.66654L18.4 3.93396V1.53333C18.4 1.12667 18.2385 0.736659 17.9509 0.449103C17.6633 0.161547 17.2733 0 16.8667 0H1.53333C1.12667 0 0.736659 0.161547 0.449103 0.449103C0.161547 0.736659 0 1.12667 0 1.53333V12.2667C0 12.6733 0.161547 13.0633 0.449103 13.3509C0.736659 13.6385 1.12667 13.8 1.53333 13.8H16.8667C17.2733 13.8 17.6633 13.6385 17.9509 13.3509C18.2385 13.0633 18.4 12.6733 18.4 12.2667V9.87083L21.8078 12.143C21.9344 12.2252 22.0824 12.2682 22.2333 12.2667C22.4367 12.2667 22.6317 12.1859 22.7754 12.0421C22.9192 11.8983 23 11.7033 23 11.5V2.3C22.999 2.16206 22.9609 2.02693 22.8895 1.90886C22.8182 1.7908 22.7163 1.69417 22.5946 1.62917ZM16.8667 12.2667H1.53333V1.53333H16.8667V12.2667ZM21.4667 10.0673L18.4 8.02317V5.77683L21.4667 3.7375V10.0673Z" fill="#566FE9"/>
</svg>
