<svg width="20" height="18" viewBox="0 0 20 18" fill="none" xmlns="http://www.w3.org/2000/svg">
<path d="M0.000589879 8.99999C0.00257492 7.21047 0.714337 5.49482 1.97972 4.22944C3.2451 2.96406 4.96075 2.2523 6.75027 2.25031H16.9395L15.9692 1.28098C15.8285 1.14026 15.7494 0.949395 15.7494 0.750381C15.7494 0.551368 15.8285 0.360505 15.9692 0.219782C16.1099 0.0790578 16.3008 4.68892e-09 16.4998 0C16.6988 -4.68892e-09 16.8897 0.0790578 17.0304 0.219782L19.2803 2.46967C19.35 2.53933 19.4053 2.62204 19.4431 2.71308C19.4808 2.80413 19.5003 2.90172 19.5003 3.00027C19.5003 3.09883 19.4808 3.19642 19.4431 3.28747C19.4053 3.37851 19.35 3.46122 19.2803 3.53087L17.0304 5.78077C16.8897 5.92149 16.6988 6.00055 16.4998 6.00055C16.3008 6.00055 16.1099 5.92149 15.9692 5.78077C15.8285 5.64004 15.7494 5.44918 15.7494 5.25017C15.7494 5.05115 15.8285 4.86029 15.9692 4.71957L16.9395 3.75024H6.75027C5.35841 3.75173 4.02398 4.3053 3.03978 5.2895C2.05558 6.2737 1.50201 7.60813 1.50052 8.99999C1.50052 9.19889 1.4215 9.38965 1.28086 9.53029C1.14021 9.67094 0.949457 9.74995 0.750554 9.74995C0.551651 9.74995 0.360895 9.67094 0.220249 9.53029C0.0796037 9.38965 0.000589879 9.19889 0.000589879 8.99999ZM18.7497 8.25003C18.5508 8.25003 18.36 8.32904 18.2194 8.46968C18.0787 8.61033 17.9997 8.80109 17.9997 8.99999C17.9982 10.3919 17.4447 11.7263 16.4605 12.7105C15.4763 13.6947 14.1418 14.2483 12.75 14.2497H2.56078L3.53105 13.2804C3.60073 13.2107 3.656 13.128 3.69371 13.037C3.73142 12.9459 3.75083 12.8484 3.75083 12.7498C3.75083 12.6513 3.73142 12.5537 3.69371 12.4627C3.656 12.3716 3.60073 12.2889 3.53105 12.2192C3.46137 12.1495 3.37865 12.0943 3.28761 12.0566C3.19657 12.0188 3.09899 11.9994 3.00045 11.9994C2.90191 11.9994 2.80433 12.0188 2.71329 12.0566C2.62225 12.0943 2.53953 12.1495 2.46985 12.2192L0.219954 14.4691C0.150225 14.5388 0.0949087 14.6215 0.0571673 14.7125C0.0194259 14.8036 0 14.9011 0 14.9997C0 15.0983 0.0194259 15.1959 0.0571673 15.2869C0.0949087 15.3779 0.150225 15.4607 0.219954 15.5303L2.46985 17.7802C2.53953 17.8499 2.62225 17.9052 2.71329 17.9429C2.80433 17.9806 2.90191 18 3.00045 18C3.09899 18 3.19657 17.9806 3.28761 17.9429C3.37865 17.9052 3.46137 17.8499 3.53105 17.7802C3.60073 17.7105 3.656 17.6278 3.69371 17.5368C3.73142 17.4457 3.75083 17.3481 3.75083 17.2496C3.75083 17.1511 3.73142 17.0535 3.69371 16.9624C3.656 16.8714 3.60073 16.7887 3.53105 16.719L2.56078 15.7497H12.75C14.5395 15.7477 16.2552 15.0359 17.5205 13.7705C18.7859 12.5052 19.4977 10.7895 19.4997 8.99999C19.4997 8.80109 19.4206 8.61033 19.28 8.46968C19.1394 8.32904 18.9486 8.25003 18.7497 8.25003Z" fill="#566FE9"/>
</svg>
