<svg width="24" height="24" viewBox="0 0 24 24" fill="none" xmlns="http://www.w3.org/2000/svg">
<path d="M20.0548 20.4955L5.05481 3.99552C4.92034 3.85107 4.73435 3.76544 4.53717 3.7572C4.33999 3.74897 4.1475 3.81878 4.00145 3.95151C3.8554 4.08424 3.76755 4.26919 3.75694 4.46626C3.74634 4.66333 3.81384 4.85664 3.94481 5.00427L7.49981 8.91458V11.9999C7.49963 12.7639 7.69397 13.5153 8.0645 14.1835C8.43504 14.8516 8.96958 15.4144 9.61775 15.8188C10.2659 16.2232 11.0064 16.4559 11.7694 16.495C12.5324 16.5342 13.2927 16.3784 13.9789 16.0424L15.0195 17.1861C14.1036 17.722 13.061 18.003 11.9998 17.9999C10.409 17.9982 8.88393 17.3655 7.75909 16.2406C6.63425 15.1158 6.00155 13.5907 5.99981 11.9999C5.99981 11.801 5.92079 11.6102 5.78014 11.4696C5.63949 11.3289 5.44872 11.2499 5.24981 11.2499C5.0509 11.2499 4.86013 11.3289 4.71948 11.4696C4.57883 11.6102 4.49981 11.801 4.49981 11.9999C4.5021 13.8585 5.19349 15.6503 6.44029 17.0287C7.68709 18.4071 9.40073 19.2742 11.2498 19.4624V22.4999C11.2498 22.6988 11.3288 22.8896 11.4695 23.0302C11.6101 23.1709 11.8009 23.2499 11.9998 23.2499C12.1987 23.2499 12.3895 23.1709 12.5301 23.0302C12.6708 22.8896 12.7498 22.6988 12.7498 22.4999V19.4615C13.9243 19.3482 15.0545 18.9554 16.0461 18.3158L18.9448 21.5033C19.0107 21.5776 19.0906 21.638 19.18 21.6811C19.2694 21.7243 19.3665 21.7492 19.4656 21.7545C19.5647 21.7599 19.6639 21.7455 19.7574 21.7122C19.8509 21.6789 19.9368 21.6274 20.0103 21.5607C20.0837 21.4939 20.1432 21.4132 20.1852 21.3233C20.2273 21.2334 20.2511 21.1361 20.2552 21.0369C20.2593 20.9378 20.2438 20.8388 20.2094 20.7457C20.175 20.6526 20.1224 20.5672 20.0548 20.4946V20.4955ZM11.9998 14.9999C11.2042 14.9999 10.4411 14.6838 9.87849 14.1212C9.31588 13.5586 8.99981 12.7955 8.99981 11.9999V10.5646L12.9054 14.8602C12.6125 14.9529 12.3071 15 11.9998 14.9999ZM17.3923 14.6333C17.7946 13.8139 18.0025 12.9127 17.9998 11.9999C17.9998 11.801 18.0788 11.6102 18.2195 11.4696C18.3601 11.3289 18.5509 11.2499 18.7498 11.2499C18.9487 11.2499 19.1395 11.3289 19.2801 11.4696C19.4208 11.6102 19.4998 11.801 19.4998 11.9999C19.5029 13.1413 19.2428 14.268 18.7395 15.2924C18.6779 15.4187 18.582 15.5251 18.4628 15.5995C18.3436 15.6739 18.2059 15.7134 18.0654 15.7133C17.9513 15.7135 17.8386 15.6872 17.7364 15.6365C17.5577 15.549 17.4212 15.3943 17.3566 15.2061C17.2921 15.018 17.3049 14.812 17.3923 14.6333ZM7.87481 4.20646C8.28787 3.25904 9.01447 2.48268 9.9325 2.00786C10.8505 1.53305 11.904 1.38872 12.9159 1.59913C13.9278 1.80954 14.8365 2.36186 15.4891 3.16328C16.1418 3.96469 16.4987 4.96635 16.4998 5.9999V11.9999C16.4997 12.1565 16.4915 12.3129 16.4754 12.4686C16.4561 12.6538 16.3687 12.8251 16.23 12.9494C16.0914 13.0736 15.9116 13.1418 15.7254 13.1408C15.6992 13.1422 15.6729 13.1422 15.6467 13.1408C15.4489 13.12 15.2675 13.0216 15.1423 12.867C15.0171 12.7125 14.9585 12.5146 14.9792 12.3168C14.9895 12.2136 14.9951 12.1068 14.9951 12.0018V5.9999C14.9931 5.31179 14.7547 4.64527 14.3197 4.11209C13.8847 3.5789 13.2796 3.21146 12.6059 3.07136C11.9322 2.93126 11.2309 3.02701 10.6194 3.34257C10.0079 3.65813 9.52346 4.17431 9.24731 4.80458C9.21226 4.90077 9.15788 4.98875 9.08753 5.06313C9.01719 5.1375 8.93236 5.19669 8.83828 5.23704C8.74419 5.27739 8.64285 5.29805 8.54047 5.29775C8.4381 5.29746 8.33688 5.2762 8.24303 5.2353C8.14918 5.19441 8.0647 5.13473 7.99479 5.05995C7.92488 4.98517 7.87101 4.89686 7.83652 4.80048C7.80202 4.70409 7.78762 4.60167 7.79421 4.49951C7.8008 4.39735 7.82823 4.29762 7.87481 4.20646Z" fill="white"/>
</svg>
