<svg width="56" height="56" viewBox="0 0 56 56" fill="none" xmlns="http://www.w3.org/2000/svg">
<rect width="56" height="56" rx="28" fill="#566FE9" fill-opacity="0.1"/>
<path d="M32.125 26.5C32.125 26.6989 32.046 26.8897 31.9053 27.0303C31.7647 27.171 31.5739 27.25 31.375 27.25H25C24.8011 27.25 24.6103 27.171 24.4697 27.0303C24.329 26.8897 24.25 26.6989 24.25 26.5C24.25 26.3011 24.329 26.1103 24.4697 25.9697C24.6103 25.829 24.8011 25.75 25 25.75H31.375C31.5739 25.75 31.7647 25.829 31.9053 25.9697C32.046 26.1103 32.125 26.3011 32.125 26.5ZM31.375 28.75H25C24.8011 28.75 24.6103 28.829 24.4697 28.9697C24.329 29.1103 24.25 29.3011 24.25 29.5C24.25 29.6989 24.329 29.8897 24.4697 30.0303C24.6103 30.171 24.8011 30.25 25 30.25H31.375C31.5739 30.25 31.7647 30.171 31.9053 30.0303C32.046 29.8897 32.125 29.6989 32.125 29.5C32.125 29.3011 32.046 29.1103 31.9053 28.9697C31.7647 28.829 31.5739 28.75 31.375 28.75ZM37.75 27.625C37.7473 30.1106 36.7587 32.4935 35.0011 34.2511C33.2435 36.0087 30.8606 36.9973 28.375 37H20.5C20.1022 37 19.7206 36.842 19.4393 36.5607C19.158 36.2794 19 35.8978 19 35.5V27.625C19 25.1386 19.9877 22.754 21.7459 20.9959C23.504 19.2377 25.8886 18.25 28.375 18.25C30.8614 18.25 33.246 19.2377 35.0041 20.9959C36.7623 22.754 37.75 25.1386 37.75 27.625ZM36.25 27.625C36.25 25.5364 35.4203 23.5334 33.9435 22.0565C32.4666 20.5797 30.4636 19.75 28.375 19.75C26.2864 19.75 24.2834 20.5797 22.8065 22.0565C21.3297 23.5334 20.5 25.5364 20.5 27.625V35.5H28.375C30.4629 35.4978 32.4646 34.6674 33.941 33.191C35.4174 31.7146 36.2478 29.7129 36.25 27.625Z" fill="#566FE9"/>
</svg>
