<svg width="56" height="56" viewBox="0 0 56 56" fill="none" xmlns="http://www.w3.org/2000/svg">
<rect width="56" height="56" rx="28" fill="#566FE9"/>
<path d="M37.7875 26.7339L24.28 18.4708C24.0523 18.3313 23.7914 18.2552 23.5244 18.2503C23.2575 18.2453 22.994 18.3117 22.7613 18.4427C22.5307 18.5715 22.3387 18.7595 22.2049 18.9872C22.0711 19.2149 22.0004 19.4742 22 19.7383V36.2627C22.0017 36.6588 22.1607 37.0381 22.442 37.3171C22.7233 37.5961 23.1038 37.752 23.5 37.7505C23.7765 37.7503 24.0477 37.6741 24.2838 37.5302L37.7875 29.267C38.0046 29.1347 38.184 28.9488 38.3084 28.7272C38.4329 28.5055 38.4983 28.2556 38.4983 28.0014C38.4983 27.7472 38.4329 27.4973 38.3084 27.2756C38.184 27.054 38.0046 26.8681 37.7875 26.7358V26.7339ZM23.5 36.2448V19.7505L36.9841 28.0005L23.5 36.2448Z" fill="white"/>
</svg>
