<svg width="40" height="40" viewBox="0 0 40 40" fill="none" xmlns="http://www.w3.org/2000/svg">
<rect width="40" height="40" rx="20" fill="#566FE9"/>
<path d="M27.5 20C27.5 20.1658 27.4342 20.3247 27.3169 20.4419C27.1997 20.5592 27.0408 20.625 26.875 20.625H20.625V26.875C20.625 27.0408 20.5592 27.1997 20.4419 27.3169C20.3247 27.4342 20.1658 27.5 20 27.5C19.8342 27.5 19.6753 27.4342 19.5581 27.3169C19.4408 27.1997 19.375 27.0408 19.375 26.875V20.625H13.125C12.9592 20.625 12.8003 20.5592 12.6831 20.4419C12.5658 20.3247 12.5 20.1658 12.5 20C12.5 19.8342 12.5658 19.6753 12.6831 19.5581C12.8003 19.4408 12.9592 19.375 13.125 19.375H19.375V13.125C19.375 12.9592 19.4408 12.8003 19.5581 12.6831C19.6753 12.5658 19.8342 12.5 20 12.5C20.1658 12.5 20.3247 12.5658 20.4419 12.6831C20.5592 12.8003 20.625 12.9592 20.625 13.125V19.375H26.875C27.0408 19.375 27.1997 19.4408 27.3169 19.5581C27.4342 19.6753 27.5 19.8342 27.5 20Z" fill="white"/>
</svg>
