<svg width="56" height="56" viewBox="0 0 56 56" fill="none" xmlns="http://www.w3.org/2000/svg">
<rect width="56" height="56" rx="28" fill="#566FE9" fill-opacity="0.1"/>
<path d="M32.5001 37.7504C32.5001 37.9494 32.4211 38.1401 32.2805 38.2808C32.1398 38.4214 31.949 38.5004 31.7501 38.5004H24.2501C24.0512 38.5004 23.8604 38.4214 23.7198 38.2808C23.5791 38.1401 23.5001 37.9494 23.5001 37.7504C23.5001 37.5515 23.5791 37.3608 23.7198 37.2201C23.8604 37.0795 24.0512 37.0004 24.2501 37.0004H31.7501C31.949 37.0004 32.1398 37.0795 32.2805 37.2201C32.4211 37.3608 32.5001 37.5515 32.5001 37.7504ZM36.2501 25.7504C36.2534 27.0007 35.9709 28.2352 35.4243 29.3597C34.8778 30.4842 34.0815 31.469 33.0964 32.2389C32.9122 32.3801 32.7627 32.5615 32.6593 32.7693C32.556 32.9772 32.5015 33.2059 32.5001 33.4379V34.0004C32.5001 34.3983 32.3421 34.7798 32.0608 35.0611C31.7795 35.3424 31.3979 35.5004 31.0001 35.5004H25.0001C24.6023 35.5004 24.2208 35.3424 23.9395 35.0611C23.6582 34.7798 23.5001 34.3983 23.5001 34.0004V33.4379C23.5 33.2086 23.4472 32.9824 23.346 32.7766C23.2447 32.5709 23.0977 32.3911 22.9161 32.2511C21.9334 31.4857 21.1377 30.5069 20.5892 29.3886C20.0407 28.2703 19.7537 27.0419 19.7501 25.7964C19.7257 21.3283 23.337 17.6073 27.8014 17.5004C28.9014 17.4739 29.9956 17.6677 31.0196 18.0705C32.0436 18.4732 32.9767 19.0767 33.7639 19.8454C34.5512 20.6141 35.1767 21.5326 35.6037 22.5467C36.0306 23.5608 36.2504 24.6501 36.2501 25.7504ZM34.7501 25.7504C34.7504 24.8501 34.5705 23.9589 34.2212 23.1291C33.8718 22.2993 33.3599 21.5478 32.7158 20.9189C32.0716 20.2899 31.3081 19.7961 30.4702 19.4667C29.6324 19.1372 28.7371 18.9787 27.837 19.0004C24.1807 19.0867 21.2304 22.1308 21.2501 25.787C21.2535 26.8057 21.4886 27.8102 21.9375 28.7247C22.3865 29.6391 23.0375 30.4394 23.8414 31.0651C24.2027 31.346 24.495 31.7059 24.6959 32.1172C24.8967 32.5285 25.0008 32.9802 25.0001 33.4379V34.0004H31.0001V33.4379C31.0012 32.9789 31.107 32.5262 31.3096 32.1144C31.5122 31.7025 31.8062 31.3423 32.1692 31.0614C32.9755 30.4312 33.6272 29.6252 34.0745 28.7047C34.5218 27.7843 34.7529 26.7738 34.7501 25.7504ZM33.2398 24.8748C33.0453 23.7885 32.5227 22.7879 31.7423 22.0077C30.9619 21.2274 29.9611 20.705 28.8748 20.5108C28.7777 20.4944 28.6783 20.4973 28.5823 20.5193C28.4862 20.5414 28.3955 20.5821 28.3153 20.6392C28.235 20.6963 28.1668 20.7687 28.1145 20.8522C28.0622 20.9357 28.0268 21.0286 28.0104 21.1258C27.9941 21.2229 27.997 21.3223 28.019 21.4183C28.0411 21.5143 28.0818 21.605 28.1389 21.6853C28.196 21.7656 28.2684 21.8338 28.3519 21.8861C28.4353 21.9384 28.5283 21.9738 28.6254 21.9901C30.1789 22.2517 31.497 23.5698 31.7604 25.1261C31.7901 25.3007 31.8807 25.4593 32.0161 25.5736C32.1515 25.6878 32.3229 25.7505 32.5001 25.7504C32.5425 25.7502 32.5848 25.7467 32.6267 25.7401C32.8227 25.7067 32.9974 25.5967 33.1124 25.4344C33.2274 25.2722 33.2732 25.0709 33.2398 24.8748Z" fill="#566FE9"/>
</svg>
