<svg width="56" height="56" viewBox="0 0 56 56" fill="none" xmlns="http://www.w3.org/2000/svg">
<rect width="56" height="56" rx="28" fill="#566FE9" fill-opacity="0.1"/>
<path d="M37.75 33.2502C37.75 33.4491 37.671 33.6399 37.5303 33.7805C37.3897 33.9212 37.1989 34.0002 37 34.0002C36.8011 34.0002 36.6103 33.9212 36.4697 33.7805C36.329 33.6399 36.25 33.4491 36.25 33.2502C36.2498 31.6186 35.7658 30.0238 34.8593 28.6672C33.9528 27.3107 32.6644 26.2535 31.157 25.6291C29.6496 25.0048 27.991 24.8414 26.3908 25.1597C24.7906 25.4779 23.3207 26.2635 22.1669 27.417L20.0688 29.5002H24.25C24.4489 29.5002 24.6397 29.5792 24.7803 29.7198C24.921 29.8605 25 30.0513 25 30.2502C25 30.4491 24.921 30.6399 24.7803 30.7805C24.6397 30.9212 24.4489 31.0002 24.25 31.0002H18.25C18.0511 31.0002 17.8603 30.9212 17.7197 30.7805C17.579 30.6399 17.5 30.4491 17.5 30.2502V24.2502C17.5 24.0513 17.579 23.8605 17.7197 23.7198C17.8603 23.5792 18.0511 23.5002 18.25 23.5002C18.4489 23.5002 18.6397 23.5792 18.7803 23.7198C18.921 23.8605 19 24.0513 19 24.2502V28.4474L21.1075 26.3539C22.4713 24.9909 24.2086 24.0628 26.0998 23.687C27.991 23.3112 29.9511 23.5046 31.7324 24.2427C33.5137 24.9808 35.0361 26.2305 36.1073 27.8338C37.1784 29.4371 37.75 31.322 37.75 33.2502Z" fill="#566FE9"/>
</svg>
