<svg width="20" height="20" viewBox="0 0 20 20" fill="none" xmlns="http://www.w3.org/2000/svg">
<path d="M17.7594 2.24083C17.6022 2.08375 17.406 1.97141 17.1909 1.91538C16.9759 1.85935 16.7498 1.86167 16.5359 1.92208H16.5242L1.5289 6.47208C1.28546 6.54224 1.06909 6.68472 0.908449 6.88063C0.747813 7.07654 0.650498 7.31664 0.629403 7.56911C0.608307 7.82158 0.664426 8.0745 0.790323 8.29436C0.916219 8.51421 1.10595 8.69062 1.33437 8.80021L7.96875 12.0315L11.1953 18.6619C11.2957 18.8761 11.4552 19.0571 11.6551 19.1834C11.855 19.3098 12.0869 19.3764 12.3234 19.3752C12.3594 19.3752 12.3953 19.3736 12.4312 19.3705C12.6835 19.3501 12.9235 19.253 13.119 19.0923C13.3145 18.9315 13.4562 18.7149 13.525 18.4713L18.0719 3.47599C18.0719 3.47208 18.0719 3.46818 18.0719 3.46427C18.1331 3.25096 18.1364 3.0252 18.0815 2.81019C18.0265 2.59518 17.9154 2.39866 17.7594 2.24083ZM12.3305 18.1135L12.3266 18.1244V18.119L9.19687 11.6893L12.9469 7.93927C13.0591 7.82111 13.1208 7.66376 13.1187 7.50079C13.1166 7.33781 13.051 7.1821 12.9357 7.06685C12.8205 6.95159 12.6647 6.88593 12.5018 6.88384C12.3388 6.88175 12.1814 6.94341 12.0633 7.05568L8.31328 10.8057L1.88125 7.67599H1.87578H1.88672L16.875 3.12521L12.3305 18.1135Z" fill="white"/>
</svg>
