<svg width="21" height="11" viewBox="0 0 21 11" fill="none" xmlns="http://www.w3.org/2000/svg">
<path d="M21 0.777957V7.00018C21 7.20646 20.9181 7.40429 20.7722 7.55015C20.6263 7.69601 20.4285 7.77796 20.2222 7.77796H14C13.7937 7.77796 13.5959 7.69601 13.45 7.55015C13.3042 7.40429 13.2222 7.20646 13.2222 7.00018C13.2222 6.7939 13.3042 6.59607 13.45 6.45021C13.5959 6.30434 13.7937 6.2224 14 6.2224H18.3361L16.1622 4.0631C14.9659 2.86618 13.4414 2.05095 11.7817 1.7205C10.122 1.39006 8.40156 1.55924 6.838 2.20667C5.27445 2.85409 3.93802 3.95066 2.99774 5.35769C2.05746 6.76472 1.55557 8.419 1.55556 10.1113C1.55556 10.3176 1.47361 10.5154 1.32775 10.6613C1.18189 10.8071 0.984057 10.8891 0.777778 10.8891C0.571498 10.8891 0.373667 10.8071 0.227806 10.6613C0.0819442 10.5154 1.49757e-09 10.3176 1.49757e-09 10.1113C-3.44095e-05 8.11148 0.592953 6.15656 1.70397 4.49377C2.81499 2.83097 4.39415 1.53498 6.24173 0.769677C8.08932 0.00437677 10.1224 -0.195858 12.0837 0.194296C14.0451 0.58445 15.8468 1.54747 17.2608 2.96157L19.4444 5.1306V0.777957C19.4444 0.571677 19.5264 0.373846 19.6722 0.227985C19.8181 0.0821231 20.0159 0.000178763 20.2222 0.000178763C20.4285 0.000178763 20.6263 0.0821231 20.7722 0.227985C20.9181 0.373846 21 0.571677 21 0.777957Z" fill="#566FE9"/>
</svg>
