<svg width="19" height="19" viewBox="0 0 19 19" fill="none" xmlns="http://www.w3.org/2000/svg">
<path d="M18.7767 3.26273L15.7369 0.222886C15.6663 0.152228 15.5825 0.0961738 15.4902 0.0579293C15.398 0.0196848 15.2991 0 15.1992 0C15.0993 0 15.0004 0.0196848 14.9082 0.0579293C14.8159 0.0961738 14.7321 0.152228 14.6615 0.222886L5.54201 9.34241C5.47146 9.41304 5.41552 9.49688 5.37738 9.58913C5.33924 9.68139 5.31964 9.78025 5.31972 9.88008V12.9199C5.31972 13.1215 5.39979 13.3148 5.54231 13.4573C5.68483 13.5998 5.87813 13.6799 6.07968 13.6799H9.11953C9.21935 13.68 9.31822 13.6604 9.41048 13.6222C9.50273 13.5841 9.58657 13.5281 9.6572 13.4576L18.7767 4.33807C18.8474 4.26749 18.9034 4.18368 18.9417 4.09142C18.9799 3.99916 18.9996 3.90027 18.9996 3.8004C18.9996 3.70053 18.9799 3.60164 18.9417 3.50938C18.9034 3.41712 18.8474 3.33331 18.7767 3.26273ZM8.80509 12.16H6.83964V10.1945L12.9193 4.11483L14.8848 6.08028L8.80509 12.16ZM15.9592 5.00589L13.9937 3.04044L15.1992 1.83495L17.1647 3.8004L15.9592 5.00589ZM18.2391 9.88008V17.4797C18.2391 17.8828 18.0789 18.2694 17.7939 18.5544C17.5088 18.8395 17.1222 18.9996 16.7191 18.9996H1.51992C1.11681 18.9996 0.730215 18.8395 0.445174 18.5544C0.160134 18.2694 0 17.8828 0 17.4797V2.28048C0 1.87737 0.160134 1.49077 0.445174 1.20573C0.730215 0.920692 1.11681 0.760558 1.51992 0.760558H9.11953C9.32108 0.760558 9.51438 0.840625 9.6569 0.983146C9.79942 1.12567 9.87949 1.31896 9.87949 1.52052C9.87949 1.72207 9.79942 1.91537 9.6569 2.05789C9.51438 2.20041 9.32108 2.28048 9.11953 2.28048H1.51992V17.4797H16.7191V9.88008C16.7191 9.67853 16.7992 9.48523 16.9417 9.34271C17.0842 9.20019 17.2775 9.12012 17.4791 9.12012C17.6806 9.12012 17.8739 9.20019 18.0165 9.34271C18.159 9.48523 18.2391 9.67853 18.2391 9.88008Z" fill="#566FE9"/>
</svg>
