<svg width="24" height="24" viewBox="0 0 24 24" fill="none" xmlns="http://www.w3.org/2000/svg">
<path d="M22.5 8.25005V14.2501C22.5 14.449 22.421 14.6397 22.2803 14.7804C22.1397 14.921 21.9489 15.0001 21.75 15.0001H15.75C15.5511 15.0001 15.3603 14.921 15.2197 14.7804C15.079 14.6397 15 14.449 15 14.2501C15 14.0511 15.079 13.8604 15.2197 13.7197C15.3603 13.5791 15.5511 13.5001 15.75 13.5001H19.9313L17.835 11.4179C16.6814 10.2637 15.2114 9.47758 13.6109 9.15893C12.0105 8.84029 10.3515 9.00343 8.84379 9.62773C7.33608 10.252 6.04737 11.3094 5.14068 12.6662C4.23398 14.023 3.75001 15.6182 3.75 17.2501C3.75 17.449 3.67098 17.6397 3.53033 17.7804C3.38968 17.921 3.19891 18.0001 3 18.0001C2.80109 18.0001 2.61032 17.921 2.46967 17.7804C2.32902 17.6397 2.25 17.449 2.25 17.2501C2.24997 15.3217 2.82178 13.4366 3.89312 11.8332C4.96446 10.2297 6.48721 8.98003 8.26881 8.24207C10.0504 7.5041 12.0108 7.31102 13.9022 7.68723C15.7935 8.06345 17.5308 8.99208 18.8944 10.3557L21 12.4472V8.25005C21 8.05114 21.079 7.86037 21.2197 7.71972C21.3603 7.57907 21.5511 7.50005 21.75 7.50005C21.9489 7.50005 22.1397 7.57907 22.2803 7.71972C22.421 7.86037 22.5 8.05114 22.5 8.25005Z" fill="#566FE9"/>
</svg>
