<svg width="1392" height="746" viewBox="0 0 1392 746" fill="none" xmlns="http://www.w3.org/2000/svg">
<g filter="url(#filter0_i_2747_677)">
<path d="M1380 0C1386.63 0 1392 5.37258 1392 12V664C1392 670.627 1386.63 676 1380 676H778C771.373 676 766.108 681.415 764.985 687.947C759.315 720.916 730.587 746 696 746C661.413 746 632.685 720.916 627.015 687.947C625.892 681.415 620.627 676 614 676H12C5.37258 676 8.45612e-08 670.627 0 664V12C0 5.37258 5.37258 0 12 0H1380Z" fill="white" fill-opacity="0.01"/>
</g>
<defs>
<filter id="filter0_i_2747_677" x="0" y="0" width="1392" height="746" filterUnits="userSpaceOnUse" color-interpolation-filters="sRGB">
<feFlood flood-opacity="0" result="BackgroundImageFix"/>
<feBlend mode="normal" in="SourceGraphic" in2="BackgroundImageFix" result="shape"/>
<feColorMatrix in="SourceAlpha" type="matrix" values="0 0 0 0 0 0 0 0 0 0 0 0 0 0 0 0 0 0 127 0" result="hardAlpha"/>
<feOffset/>
<feGaussianBlur stdDeviation="30"/>
<feComposite in2="hardAlpha" operator="arithmetic" k2="-1" k3="1"/>
<feColorMatrix type="matrix" values="0 0 0 0 0.337255 0 0 0 0 0.435294 0 0 0 0 0.913725 0 0 0 0.2 0"/>
<feBlend mode="normal" in2="shape" result="effect1_innerShadow_2747_677"/>
</filter>
</defs>
</svg>
