<svg width="24" height="24" viewBox="0 0 24 24" fill="none" xmlns="http://www.w3.org/2000/svg">
<path d="M2.24961 12.0001C2.2516 10.2104 2.96339 8.49471 4.22884 7.22927C5.49428 5.96383 7.21001 5.25204 8.99961 5.25005H19.1893L18.219 4.28068C18.0783 4.13995 17.9992 3.94907 17.9992 3.75005C17.9992 3.55103 18.0783 3.36016 18.219 3.21943C18.3597 3.0787 18.5506 2.99963 18.7496 2.99963C18.9486 2.99963 19.1395 3.0787 19.2802 3.21943L21.5302 5.46943C21.6 5.53908 21.6553 5.6218 21.693 5.71285C21.7308 5.80389 21.7502 5.90149 21.7502 6.00005C21.7502 6.09861 21.7308 6.19621 21.693 6.28726C21.6553 6.3783 21.6 6.46102 21.5302 6.53068L19.2802 8.78068C19.1395 8.92141 18.9486 9.00047 18.7496 9.00047C18.5506 9.00047 18.3597 8.92141 18.219 8.78068C18.0783 8.63995 17.9992 8.44907 17.9992 8.25005C17.9992 8.05103 18.0783 7.86016 18.219 7.71943L19.1893 6.75005H8.99961C7.60768 6.75154 6.27319 7.30514 5.28895 8.28938C4.3047 9.27363 3.7511 10.6081 3.74961 12.0001C3.74961 12.199 3.6706 12.3897 3.52994 12.5304C3.38929 12.671 3.19853 12.7501 2.99961 12.7501C2.8007 12.7501 2.60994 12.671 2.46928 12.5304C2.32863 12.3897 2.24961 12.199 2.24961 12.0001ZM20.9996 11.2501C20.8007 11.2501 20.6099 11.3291 20.4693 11.4697C20.3286 11.6104 20.2496 11.8011 20.2496 12.0001C20.2481 13.392 19.6945 14.7265 18.7103 15.7107C17.726 16.695 16.3915 17.2486 14.9996 17.2501H4.80993L5.78024 16.2807C5.84992 16.211 5.9052 16.1283 5.94291 16.0372C5.98062 15.9462 6.00003 15.8486 6.00003 15.7501C6.00003 15.6515 5.98062 15.5539 5.94291 15.4629C5.9052 15.3718 5.84992 15.2891 5.78024 15.2194C5.71056 15.1497 5.62783 15.0945 5.53679 15.0568C5.44574 15.019 5.34816 14.9996 5.24961 14.9996C5.15107 14.9996 5.05349 15.019 4.96244 15.0568C4.8714 15.0945 4.78867 15.1497 4.71899 15.2194L2.46899 17.4694C2.39926 17.5391 2.34394 17.6218 2.30619 17.7128C2.26845 17.8039 2.24902 17.9015 2.24902 18.0001C2.24902 18.0986 2.26845 18.1962 2.30619 18.2873C2.34394 18.3783 2.39926 18.461 2.46899 18.5307L4.71899 20.7807C4.78867 20.8504 4.8714 20.9056 4.96244 20.9433C5.05349 20.9811 5.15107 21.0005 5.24961 21.0005C5.34816 21.0005 5.44574 20.9811 5.53679 20.9433C5.62783 20.9056 5.71056 20.8504 5.78024 20.7807C5.84992 20.711 5.9052 20.6283 5.94291 20.5372C5.98062 20.4462 6.00003 20.3486 6.00003 20.2501C6.00003 20.1515 5.98062 20.0539 5.94291 19.9629C5.9052 19.8718 5.84992 19.7891 5.78024 19.7194L4.80993 18.7501H14.9996C16.7892 18.7481 18.505 18.0363 19.7704 16.7708C21.0358 15.5054 21.7476 13.7897 21.7496 12.0001C21.7496 11.8011 21.6706 11.6104 21.5299 11.4697C21.3893 11.3291 21.1985 11.2501 20.9996 11.2501Z" fill="#566FE9"/>
</svg>
